<?xml version="1.0" encoding="UTF-8"?>
<svg width="226px" height="235px" viewBox="0 0 226 235" version="1.1" xmlns="http://www.w3.org/2000/svg" xmlns:xlink="http://www.w3.org/1999/xlink">
    <title>714B57F6-5F5C-4116-85A0-23F7F038826C</title>
    <g id="Page-1" stroke="none" stroke-width="1" fill="none" fill-rule="evenodd" fill-opacity="0.1">
        <g id="1.Desktop---Home-page" transform="translate(-1367.000000, -799.000000)" fill="#FFFFFF">
            <path d="M1382.7786,866.530217 C1387.96712,867.620493 1393.03515,869.332701 1397.85756,871.57192 C1402.68161,873.807843 1407.25709,876.597474 1411.41509,879.90225 C1415.3436,883.042232 1418.92707,886.622214 1421.88367,890.656368 C1425.2877,891.20612 1428.67462,891.870569 1432.03782,892.645759 C1428.91299,888.789253 1425.57414,885.131489 1422.00252,881.721904 C1417.84979,877.766851 1413.41227,874.123588 1408.70905,870.86067 C1404.00714,867.597422 1399.05863,864.691447 1393.91126,862.172738 C1388.7629,859.65271 1383.41963,857.523573 1377.9315,855.730946 L1378.12377,854.99959 C1383.82987,856.152818 1389.40953,857.992577 1394.75379,860.360664 C1400.09969,862.7304 1405.21645,865.631102 1410.00955,868.993226 C1414.80068,872.35535 1419.28891,876.155826 1423.3488,880.364991 C1427.09886,884.24325 1430.50158,888.45604 1433.42887,892.965789 C1436.87768,893.794043 1440.2995,894.740619 1443.68773,895.799914 C1439.66175,890.81457 1435.81555,885.728372 1431.8653,880.770714 C1427.23978,874.931737 1422.50198,869.238769 1417.39544,863.943612 C1412.29449,858.656037 1406.80932,853.773524 1400.87671,849.478337 C1394.93586,845.188094 1388.52585,841.554719 1381.58345,838.700489 L1381.78363,837.970782 C1389.31767,839.086436 1396.5801,842.061295 1403.14683,846.03019 C1409.73793,850.002711 1415.66033,855.008489 1420.93051,860.553144 C1426.20102,866.101094 1430.84366,872.164519 1435.03821,878.458656 C1438.89264,884.276209 1442.40302,890.27042 1445.63322,896.427449 C1449.37802,897.651208 1453.08067,899.00845 1456.72736,900.507415 C1453.86394,894.958806 1451.07723,889.389103 1448.14566,883.920254 C1444.5082,877.162387 1440.69195,870.526138 1436.3476,864.268916 C1434.18185,861.141458 1431.91139,858.087168 1429.45953,855.186796 C1427.05079,852.249181 1424.45143,849.477348 1421.73913,846.82186 C1416.28557,841.540546 1410.20578,836.894019 1403.48266,833.161767 L1403.80005,832.474906 C1411.08947,835.223338 1417.78395,839.557087 1423.66618,844.725682 C1426.62805,847.297455 1429.35845,850.12367 1431.95321,853.05766 C1434.50483,856.03087 1436.91357,859.124381 1439.12542,862.350715 C1443.54055,868.805361 1447.31828,875.648261 1450.61893,882.672105 C1453.48663,888.746736 1456.04221,894.93903 1458.38575,901.208119 C1458.85327,901.406201 1459.32343,901.598021 1459.78931,901.801376 C1463.1805,903.277929 1466.52034,904.878407 1469.80485,906.588638 C1466.60429,898.61657 1463.1917,890.83039 1459.22729,883.335895 C1454.82138,874.796607 1449.7629,866.645243 1444.24744,858.832036 C1438.66283,851.071894 1432.58272,843.646612 1425.99788,836.693959 C1422.70315,833.245153 1419.25862,829.968062 1415.4776,827.119436 C1413.59236,825.688036 1411.61527,824.378584 1409.54894,823.19833 C1408.51841,822.599799 1407.45134,822.066856 1406.3655,821.561598 C1405.81929,821.318692 1405.27538,821.05634 1404.71929,820.826288 C1404.15859,820.611396 1403.5969,820.388266 1403.03357,820.158213 L1403.20939,819.421914 C1403.82079,819.508596 1404.43384,819.602199 1405.04853,819.704041 C1405.65961,819.816101 1406.26344,819.961449 1406.87583,820.090648 C1408.08184,820.40079 1409.28522,820.751801 1410.46456,821.174662 C1412.83017,822.00786 1415.10918,823.089567 1417.30292,824.314314 C1421.69304,826.775676 1425.67456,829.874459 1429.3815,833.184179 C1433.08909,836.498843 1436.51848,840.05872 1439.83329,843.749114 C1443.11945,847.46126 1446.17219,851.375114 1449.06524,855.401358 C1454.75652,863.518444 1459.68692,872.183635 1463.52884,881.302009 C1467.12384,889.718361 1469.82329,898.507147 1471.44415,907.457761 C1475.453,909.604366 1479.37131,911.924993 1483.18591,914.410743 C1481.40669,910.220036 1479.71274,906.005597 1477.97796,901.816537 L1476.39924,897.959702 L1474.7932,894.119675 C1473.72086,891.562404 1472.63699,889.014362 1471.54325,886.474229 C1467.13701,876.330508 1462.39954,866.378277 1456.81922,856.937566 C1451.24482,847.514324 1444.76138,838.628968 1437.23721,830.680631 C1429.73115,822.718121 1421.09382,815.795131 1411.40093,810.358252 L1411.71898,809.67205 C1416.97631,811.629142 1421.99857,814.262878 1426.74229,817.330021 C1427.91472,818.115429 1429.08386,818.911713 1430.24247,819.724146 L1433.63037,822.281088 L1436.91423,824.975797 L1440.07331,827.818491 C1448.35276,835.57369 1455.35738,844.630761 1461.1955,854.32064 C1467.03428,864.013815 1471.72565,874.321011 1475.59392,884.849032 L1477.01229,888.808699 L1478.3556,892.790448 L1479.62417,896.793291 L1480.84698,900.806021 C1482.25975,905.654586 1483.58561,910.51996 1484.74586,915.433784 C1487.11838,917.020089 1489.44546,918.676268 1491.73007,920.391113 C1488.67997,911.638911 1486.11353,902.771023 1483.71171,893.864575 C1482.38717,888.899665 1481.12584,883.93146 1479.85102,878.983359 C1478.59002,874.030974 1477.25725,869.110889 1475.81418,864.235298 C1472.90697,854.495321 1469.53718,844.915195 1465.04566,835.839667 C1460.6381,826.725578 1455.08181,818.164867 1448.26946,810.502941 L1448.79361,809.957803 L1450.26236,811.226057 L1450.9946,811.865786 L1451.70378,812.529246 L1453.11887,813.866054 L1454.48094,815.256255 L1455.16313,815.953004 L1455.82194,816.670846 L1457.13759,818.112133 L1458.39662,819.602199 L1459.02679,820.348715 L1459.63424,821.112699 C1462.92007,825.160037 1465.7858,829.539269 1468.39998,834.054291 C1469.05945,835.181151 1469.65209,836.34163 1470.28061,837.486288 C1470.86929,838.648414 1471.48662,839.799994 1472.04732,840.976951 C1473.2079,843.314058 1474.27399,845.694011 1475.28706,848.096376 C1476.27874,850.504673 1477.24902,852.923517 1478.1169,855.374661 C1479.00651,857.819213 1479.84213,860.280245 1480.61881,862.756767 C1483.75188,872.658901 1486.20144,882.706382 1488.30727,892.766388 C1490.28668,902.301031 1492.08039,911.879839 1493.31801,921.591801 C1496.89292,924.347154 1500.35226,927.257743 1503.67728,930.321261 C1503.29536,928.324619 1502.94867,926.329295 1502.60856,924.335618 C1502.11371,921.657718 1501.60371,918.986739 1501.15331,916.313124 C1500.63212,913.647748 1500.13595,910.983361 1499.65822,908.318974 C1499.1232,905.662826 1498.59477,903.008656 1498.09959,900.350861 C1495.9447,889.750661 1493.65811,879.192318 1490.91388,868.737136 C1488.18051,858.281295 1485.06588,847.920705 1481.59567,837.66031 C1478.16135,827.383435 1474.28781,817.246306 1470.26382,807.108847 L1470.94337,806.776952 C1476.4618,816.216674 1481.1907,826.115182 1485.39216,836.236162 C1489.5574,846.373621 1493.1119,856.773432 1496.05566,867.346276 C1498.98854,877.91945 1501.38707,888.658077 1502.90027,899.529199 C1503.25848,902.249616 1503.58312,904.973988 1503.90116,907.695723 C1504.14875,910.428335 1504.37791,913.160947 1504.58237,915.892899 C1504.72822,918.631773 1504.81481,921.373614 1504.91622,924.108533 C1504.92478,926.553085 1504.9205,928.99467 1504.86091,931.435597 C1505.35345,931.898997 1505.84962,932.358443 1506.33591,932.828764 C1508.0236,934.460224 1509.67311,936.131233 1511.28409,937.839157 C1511.32064,935.672447 1511.42007,933.529138 1511.53793,931.397365 C1511.59522,928.389547 1511.74898,925.414689 1511.91228,922.452354 L1512.05978,918.001931 L1512.27313,913.575239 L1512.39528,909.149864 L1512.57966,904.74064 C1512.60435,901.795773 1512.68008,898.860795 1512.78873,895.929442 C1512.79037,892.993474 1512.82725,890.061462 1512.90067,887.130768 C1512.86017,884.198096 1512.88322,881.266413 1512.87268,878.333742 C1512.75416,875.403707 1512.686,872.471365 1512.61225,869.537375 C1512.11378,857.810315 1511.02037,846.095119 1509.37053,834.399369 C1508.91388,831.484495 1508.46347,828.5627 1508.0404,825.626733 L1507.2591,821.252115 L1506.51568,816.854756 C1505.92864,813.944166 1505.36267,811.018087 1504.81975,808.07355 C1504.1853,805.157358 1503.57456,802.222379 1503.01781,799.252794 L1503.72996,799 C1505.06635,801.702949 1506.34908,804.439845 1507.60777,807.196187 C1508.75386,809.987795 1509.87691,812.79819 1510.97855,815.624405 L1512.46113,819.916296 L1513.90584,824.231258 C1514.76154,827.137233 1515.58992,830.057051 1516.41171,832.984449 C1519.46444,844.74348 1521.42705,856.813641 1522.32456,868.968507 C1522.4961,872.009942 1522.67323,875.053026 1522.79966,878.098746 C1522.82666,881.146114 1522.88658,884.194471 1522.88362,887.242498 C1522.78583,890.289537 1522.6515,893.335586 1522.48161,896.377351 C1522.21098,899.414502 1521.90643,902.448028 1521.55117,905.471336 L1520.85186,909.988995 L1520.09,914.490504 L1519.10524,918.95411 L1518.05397,923.393327 C1517.20814,926.325669 1516.35277,929.245157 1515.40126,932.131686 C1514.51791,934.532733 1513.60689,936.91763 1512.59974,939.266601 C1514.4616,941.291588 1516.27375,943.362058 1518.02631,945.483944 C1518.17019,944.492215 1518.32164,943.503122 1518.48264,942.516996 C1518.98638,939.503245 1519.58856,936.520806 1520.2431,933.555176 C1521.57817,927.633473 1523.17335,921.786587 1524.96212,916.013858 C1525.8626,913.133261 1526.77526,910.268155 1527.63689,907.399424 C1528.49752,904.530363 1529.33117,901.665586 1530.12365,898.799162 C1530.51216,897.364796 1530.89144,895.929442 1531.24801,894.49178 L1532.26142,890.166271 L1532.51724,889.085223 L1532.74014,887.996595 L1533.18659,885.819338 C1533.33146,885.092597 1533.49443,884.369152 1533.62415,883.639445 L1534.0041,881.449005 C1534.26091,879.988272 1534.53846,878.530506 1534.73633,877.059885 C1534.94178,875.590913 1535.20056,874.127543 1535.36387,872.651979 L1535.8979,868.227923 L1536.31307,863.788047 C1536.79607,857.859423 1537.0295,851.901466 1537.00283,845.929336 C1536.96761,833.978156 1535.77575,822.008848 1533.77034,810.062282 L1534.50224,809.874088 C1536.48099,815.627371 1538.05279,821.532924 1539.30588,827.517907 C1539.95317,830.508586 1540.42959,833.530906 1540.91028,836.558498 L1541.49995,841.119004 C1541.67643,842.642028 1541.81306,844.169997 1541.95661,845.698625 C1542.47484,851.815443 1542.66086,857.972142 1542.50414,864.128841 C1542.36553,870.287846 1541.79792,876.437624 1540.96065,882.551476 C1540.08586,888.655441 1538.92034,894.749188 1537.3785,900.713407 C1536.99691,902.203473 1536.60742,903.690244 1536.20113,905.168445 C1535.78661,906.644009 1535.36453,908.116277 1534.93059,909.580306 C1534.06435,912.510341 1533.17605,915.421589 1532.26372,918.313392 C1530.41733,924.082495 1528.37175,929.776453 1526.06903,935.395594 C1524.90418,938.200385 1523.6873,940.988368 1522.37165,943.745369 C1521.66279,945.217967 1520.93582,946.684632 1520.16967,948.139103 C1521.98446,950.436 1523.73207,952.78629 1525.41714,955.182392 C1525.97751,953.562798 1526.57113,951.965287 1527.17331,950.375685 C1528.19561,947.74129 1529.23667,945.12733 1530.34655,942.554898 C1532.52646,937.390588 1534.80613,932.308016 1537.15297,927.270597 C1539.49915,922.234497 1541.86179,917.216194 1544.04335,912.121757 L1545.67639,908.301505 C1546.21239,907.025012 1546.71712,905.737313 1547.23963,904.455546 C1547.76543,903.174768 1548.26357,901.885092 1548.7604,900.594426 C1549.25064,899.301783 1549.7794,898.020676 1550.23343,896.715838 C1554.07996,886.335473 1557.24299,875.759662 1559.71428,864.900076 C1562.22311,854.051037 1564.2226,842.996994 1566.57832,831.969978 L1567.32867,832.060615 C1566.98527,843.326253 1566.27772,854.582992 1564.70559,865.82391 C1563.17462,877.066148 1560.53475,888.253673 1556.96412,899.070083 C1555.17404,904.479936 1553.18377,909.820575 1551.00813,915.075192 C1550.47641,916.395191 1549.88739,917.687505 1549.32933,918.994979 L1548.4812,920.950423 L1547.60048,922.889717 C1547.00389,924.177746 1546.4455,925.48522 1545.8173,926.757099 L1543.94161,930.577351 C1541.35838,935.626964 1538.51603,940.536832 1535.39515,945.269383 C1533.824,947.629231 1532.20775,949.960405 1530.47824,952.21874 C1529.25972,953.835038 1527.99214,955.419036 1526.66101,956.963155 C1528.1268,959.108771 1529.53793,961.29229 1530.89836,963.507778 C1530.94709,963.301127 1531.00009,963.096123 1531.05837,962.893097 C1531.27797,962.041772 1531.598,961.239556 1531.92263,960.433714 C1532.27492,959.652591 1532.64137,958.870479 1533.04963,958.134839 C1533.85594,956.646092 1534.75609,955.274677 1535.6164,953.944461 C1536.46584,952.629736 1537.30179,951.312373 1538.17494,950.028959 C1539.0336,948.733679 1539.95844,947.496077 1540.80986,946.201786 C1541.67083,944.915405 1542.53937,943.637594 1543.43227,942.379887 C1545.25232,939.890181 1546.94397,937.311487 1548.76172,934.822441 C1549.20619,934.193258 1549.66581,933.574292 1550.09811,932.93621 L1551.37162,931.007133 L1553.92028,927.14865 L1554.55769,926.183946 L1555.16152,925.19815 L1556.37807,923.23117 L1558.81282,919.297211 L1563.40904,911.262192 L1565.58105,907.172338 C1566.29814,905.805208 1567.05243,904.455217 1567.71684,903.06139 C1573.27609,892.024816 1578.11134,880.59735 1582.17682,868.848207 L1582.95252,866.64755 L1583.34201,865.547386 L1583.69101,864.434698 L1585.09391,859.98032 L1585.80738,857.752307 C1586.03883,857.007768 1586.23342,856.253672 1586.44841,855.504189 L1587.73443,851.000373 C1588.18549,849.501738 1588.55161,847.983986 1588.93781,846.467883 L1590.10629,841.914628 C1590.84807,838.868579 1591.49899,835.798469 1592.25032,832.731326 L1593,832.825258 C1592.92724,834.402335 1592.82846,835.979413 1592.73035,837.558797 C1592.62038,839.136204 1592.57067,840.726135 1592.38926,842.29728 L1591.86642,847.020601 L1591.5971,849.385723 C1591.51874,850.177393 1591.36301,850.953242 1591.24975,851.73832 L1590.5027,856.442196 C1590.36903,857.224967 1590.2561,858.013011 1590.1053,858.792486 L1589.63416,861.127945 L1588.66816,865.80018 L1588.42353,866.969228 L1588.13808,868.127069 L1587.56355,870.443412 C1584.49535,882.802622 1580.27874,894.912993 1574.99441,906.557657 C1569.71929,918.207594 1563.35965,929.383584 1556.04389,939.897432 C1554.19652,942.512052 1552.37614,945.150401 1550.28841,947.585725 C1549.26974,948.821679 1548.22703,950.037528 1547.17642,951.244808 C1546.65555,951.851909 1546.09848,952.429676 1545.53778,953.003488 L1543.85173,954.719322 C1542.72177,955.85574 1541.55625,956.960518 1540.40061,958.064967 L1538.64872,959.616995 C1538.07353,960.126208 1537.49933,960.621249 1536.95542,961.13211 C1535.27629,962.674251 1533.72523,964.229905 1532.49847,966.163267 C1534.86474,970.188521 1537.05848,974.317926 1539.06883,978.536978 C1547.18991,995.577652 1552.35737,1014.09686 1554.01477,1033.02409 L1547.39898,1033.5188 C1545.97238,1010.10192 1538.90618,986.994858 1527.17232,966.505049 C1526.83518,967.203116 1526.49079,967.897557 1526.13554,968.585736 C1525.34931,970.049435 1524.53608,971.499621 1523.70277,972.93959 C1522.84378,974.359784 1521.95943,975.765805 1521.06752,977.16886 C1520.1384,978.543241 1519.20631,979.91861 1518.24756,981.275193 C1514.38818,986.683398 1510.07116,991.755423 1505.44992,996.525217 C1500.82604,1001.29369 1495.89927,1005.76883 1490.67452,1009.86132 C1485.44056,1013.93964 1479.94386,1017.68739 1474.0501,1020.77991 L1473.59575,1020.17511 C1478.17913,1015.37961 1482.83757,1010.8112 1487.40548,1006.1762 C1491.98293,1001.55506 1496.50573,996.919404 1500.94951,992.210584 C1505.39625,987.503412 1509.76464,982.7323 1514.17944,977.961518 C1515.26331,976.75292 1516.37384,975.562449 1517.48701,974.371319 C1518.58536,973.168324 1519.69162,971.967636 1520.82223,970.78145 C1521.92618,969.574829 1523.04988,968.378755 1524.20059,967.196524 C1524.88574,966.457259 1525.59262,965.730518 1526.30905,965.00905 C1524.57888,962.062866 1522.75126,959.17337 1520.82849,956.346826 C1519.70413,957.521147 1518.56725,958.675693 1517.41096,959.79728 C1515.76409,961.468289 1514.08528,963.088213 1512.39594,964.688032 C1510.73063,966.317843 1509.05018,967.922606 1507.35129,969.500013 C1505.68434,971.115981 1503.99171,972.696354 1502.29776,974.272772 C1500.61599,975.863692 1498.9408,977.458567 1497.23105,979.013562 C1495.57035,980.623269 1493.8606,982.177275 1492.17323,983.756329 L1487.13813,988.521838 C1485.49258,990.144399 1483.82135,991.740922 1482.16296,993.352276 C1475.56857,999.835266 1469.12793,1006.48371 1462.81011,1013.27981 C1456.4666,1020.05712 1450.3157,1027.03054 1444.04001,1034 L1443.42598,1033.55835 C1448.03109,1025.35821 1453.36152,1017.59378 1459.05872,1010.10654 C1464.78161,1002.63808 1470.94041,995.494926 1477.465,988.700475 L1482.42602,983.669648 L1487.51775,978.770986 C1489.26833,977.195227 1490.99652,975.594419 1492.77377,974.049642 C1494.5632,972.517388 1496.3872,971.026004 1498.20462,969.530335 C1500.06945,968.089377 1501.93559,966.652375 1503.82774,965.250968 C1505.74624,963.881531 1507.6835,962.539779 1509.63557,961.222747 C1511.62123,959.947901 1513.6171,958.693161 1515.64523,957.489177 C1517.07381,956.672129 1518.52281,955.889029 1519.98398,955.126363 C1519.19512,953.989614 1518.39308,952.862424 1517.57327,951.747759 L1517.33786,951.672942 C1517.34313,951.598126 1517.35169,951.524298 1517.35696,951.449152 C1515.79734,949.338143 1514.18175,947.268003 1512.51414,945.23939 C1511.52246,945.879779 1510.52881,946.511269 1509.53647,947.138475 C1507.82178,948.298953 1506.10643,949.441304 1504.38054,950.554322 C1502.69844,951.743474 1501.0091,952.908567 1499.31416,954.05751 C1497.66499,955.279291 1496.00265,956.472728 1494.34393,957.666825 C1487.77489,962.540768 1481.46891,967.725512 1475.46716,973.255994 C1469.47397,978.795705 1463.81956,984.706201 1458.49835,990.938046 C1457.20344,992.523363 1455.89174,994.100111 1454.57412,995.676529 C1453.31476,997.295793 1452.05772,998.92132 1450.76478,1000.52806 C1449.54033,1002.18127 1448.33662,1003.85327 1447.07563,1005.49659 C1445.8999,1007.19199 1444.70574,1008.88311 1443.47207,1010.56203 L1442.81293,1010.1919 C1443.67521,1008.29381 1444.57635,1006.4079 1445.49658,1004.52695 C1446.46949,1002.67829 1447.50002,1000.85798 1448.50981,999.019537 C1449.58511,997.224273 1450.69597,995.447136 1451.80486,993.664396 C1452.98453,991.932742 1454.17014,990.201088 1455.37286,988.478003 C1460.29437,981.670698 1465.87996,975.327783 1471.98378,969.531323 C1478.07937,963.725636 1484.72808,958.491453 1491.83214,953.994229 C1493.63573,952.911533 1495.43536,951.828508 1497.24883,950.773827 C1499.10114,949.781768 1500.95939,948.805859 1502.82454,947.85368 C1504.72657,946.965441 1506.63914,946.106206 1508.55237,945.265428 C1509.55985,944.877173 1510.56568,944.489908 1511.57349,944.11187 C1509.78867,941.983063 1507.95117,939.897762 1506.04914,937.869809 C1499.39779,940.444548 1492.9756,943.301744 1486.81976,946.628602 C1480.13384,950.244839 1473.75247,954.349195 1467.74512,958.957161 C1461.74073,963.567104 1456.11991,968.680328 1450.93401,974.249042 C1445.7254,979.805232 1440.99782,985.83405 1436.56918,992.219813 L1435.9028,991.863199 C1438.77873,984.57107 1442.87779,977.745309 1447.73016,971.510168 C1452.60624,965.286234 1458.28138,959.665445 1464.54126,954.80073 C1470.79851,949.934367 1477.65267,945.821442 1484.91279,942.683108 C1491.36033,939.894136 1498.12659,937.830917 1505.02553,936.802274 C1504.59587,936.353046 1504.17016,935.899863 1503.73457,935.455579 C1501.7927,933.476075 1499.78827,931.558204 1497.73841,929.689441 C1491.31095,932.23254 1484.83739,934.471759 1478.77769,937.352026 C1477.17626,938.107112 1475.61137,938.913943 1474.07776,939.761972 L1472.93496,940.408952 L1471.81652,941.097132 C1471.07705,941.565146 1470.31353,941.989655 1469.59447,942.490958 L1467.42443,943.968829 C1466.70274,944.463541 1466.02483,945.024828 1465.31498,945.537997 L1464.26239,946.325711 L1463.24635,947.16616 L1462.22998,948.00529 C1461.88856,948.281814 1461.54351,948.553724 1461.21987,948.853319 C1458.54938,951.149557 1456.03595,953.645854 1453.56663,956.200818 C1451.12201,958.78215 1448.76299,961.469937 1446.44282,964.209141 C1444.12496,966.9523 1441.86636,969.76632 1439.58274,972.578362 C1437.29911,975.392382 1435.0494,978.2476 1432.66931,981.020422 L1432.04177,980.59855 C1435.40827,974.117537 1439.14616,967.844494 1443.37955,961.834461 C1443.91029,961.085638 1444.46507,960.351317 1445.00766,959.608426 L1445.82846,958.498375 L1446.6858,957.412713 C1447.26198,956.692893 1447.81873,955.957583 1448.41235,955.24864 L1450.21363,953.13763 C1450.81384,952.433631 1451.4529,951.758635 1452.08109,951.076389 L1453.02832,950.056644 L1454.01309,949.06854 C1454.67552,948.414638 1455.31787,947.74129 1456.00764,947.113755 L1458.08318,945.235765 C1460.91598,942.800111 1463.90945,940.524308 1467.12384,938.57216 C1467.51333,938.310467 1467.93147,938.09294 1468.3417,937.863546 L1469.57537,937.180311 L1470.80838,936.499383 C1471.22553,936.284162 1471.65026,936.082454 1472.07169,935.876133 C1473.76629,935.07095 1475.48033,934.319819 1477.22663,933.677123 C1483.61426,931.283657 1490.17934,929.849291 1496.77702,928.816364 C1493.56955,925.943347 1490.2363,923.209088 1486.79309,920.615232 C1483.81213,922.100025 1480.79891,923.494181 1477.79852,924.898225 L1472.68967,927.277189 L1470.14266,928.467989 L1467.61177,929.684168 C1460.86461,932.91215 1454.24026,936.314484 1447.95536,940.238556 L1445.62038,941.735543 L1443.32523,943.291856 L1441.06465,944.896289 L1438.84885,946.560707 L1436.6854,948.292032 L1434.57496,950.086307 L1432.50633,951.929691 L1430.5029,953.844596 C1425.23305,959.027033 1420.65362,964.934234 1417.09254,971.550378 L1416.40113,971.24518 C1418.91818,964.04237 1423.16771,957.450615 1428.2815,951.727324 L1430.24576,949.616645 L1432.28245,947.575178 C1432.98209,946.917651 1433.69424,946.271988 1434.4031,945.62336 L1436.58795,943.744051 C1439.53302,941.276098 1442.64535,939.015126 1445.87488,936.946304 C1452.32572,932.803057 1459.20293,929.419509 1466.22929,926.553744 L1468.8787,925.514554 L1471.53568,924.504697 C1473.30898,923.840578 1475.10433,923.237762 1476.89113,922.620114 C1479.83719,921.636295 1482.79477,920.701914 1485.78198,919.851578 C1482.59986,917.494696 1479.32193,915.264046 1475.96464,913.155014 C1470.17163,915.033335 1464.52151,917.121602 1459.03897,919.563518 C1453.19558,922.190002 1447.53986,925.172442 1442.11757,928.540499 C1436.69232,931.903941 1431.51334,935.656957 1426.56845,939.732968 C1421.63509,943.827436 1416.97994,948.273245 1412.46405,952.96954 L1411.86648,952.50614 C1415.31167,946.913037 1419.56811,941.809371 1424.31479,937.216895 C1429.05028,932.604974 1434.31947,928.529293 1439.9393,925.028412 C1445.56243,921.532145 1451.55003,918.613316 1457.77929,916.409034 C1463.23318,914.458863 1468.8731,913.025486 1474.58874,912.296109 C1470.92197,910.045354 1467.15906,907.947858 1463.31516,906.002961 C1462.36464,906.384294 1461.41379,906.753102 1460.46557,907.112683 C1459.09823,907.685506 1457.73583,908.249101 1456.37474,908.797205 C1455.03275,909.404306 1453.68944,909.990313 1452.34712,910.567751 C1451.02653,911.201877 1449.7066,911.827435 1448.38272,912.434535 C1443.14349,915.000046 1438.06625,917.83483 1433.19182,921.00085 C1428.31772,924.16621 1423.66322,927.671046 1419.22471,931.471522 C1414.7648,935.256178 1410.59363,939.393493 1406.49753,943.727242 L1405.88777,943.279332 C1408.82099,938.022737 1412.56546,933.22427 1416.74321,928.841742 C1420.94237,924.474375 1425.64789,920.578318 1430.70176,917.209273 C1435.75497,913.840557 1441.17528,911.006761 1446.85075,908.870703 C1448.28065,908.363468 1449.71483,907.874689 1451.14769,907.39481 C1452.60624,906.982166 1454.06379,906.57875 1455.52233,906.19544 C1457.00392,905.881672 1458.48419,905.582407 1459.95953,905.293029 C1460.46919,905.222497 1460.97787,905.155261 1461.48655,905.087366 C1460.81194,904.75679 1460.13468,904.431816 1459.45513,904.110798 C1459.45908,904.122004 1459.46303,904.13288 1459.46698,904.143427 L1458.7759,904.449943 C1458.62379,904.161224 1458.47662,903.871187 1458.32517,903.582468 C1455.31326,902.188972 1452.25724,900.88677 1449.16105,899.685094 C1444.93588,901.521556 1440.79599,903.455907 1436.77265,905.59559 C1432.37793,907.953131 1428.11095,910.517653 1424.00399,913.323104 C1419.89472,916.125588 1415.95665,919.174934 1412.16872,922.422362 C1408.38902,925.681655 1404.79304,929.163749 1401.27674,932.790532 L1400.68673,932.317244 C1403.48266,928.059301 1406.79582,924.136547 1410.42802,920.53712 C1414.05232,916.925498 1418.02956,913.66192 1422.24979,910.757264 C1426.47199,907.855903 1430.94902,905.318737 1435.62426,903.242004 C1439.46388,901.520568 1443.43553,900.095101 1447.49903,899.058547 C1443.7595,897.655822 1439.96795,896.38658 1436.12931,895.272573 C1432.83064,896.942924 1429.56851,898.625469 1426.3742,900.421393 C1422.81608,902.40584 1419.34357,904.524101 1415.94645,906.760024 L1413.42182,908.472232 C1412.60003,909.070763 1411.76277,909.64853 1410.92945,910.232889 L1408.47693,912.051555 L1406.05107,913.911088 C1402.84096,916.427161 1399.7372,919.085616 1396.65516,921.812954 L1396.10698,921.291876 C1398.68988,918.047744 1401.58853,915.056076 1404.67484,912.272378 L1407.02596,910.223331 L1409.45675,908.267887 C1410.28513,907.639364 1411.10988,907.004578 1411.95011,906.390885 L1414.51029,904.60485 C1417.95647,902.27005 1421.57945,900.196943 1425.32754,898.396735 C1428.26043,896.999942 1431.27332,895.769921 1434.36096,894.77918 C1431.05108,893.860619 1427.71027,893.051152 1424.34377,892.354404 L1424.38657,892.675422 C1420.84458,893.487197 1417.36745,894.418941 1413.98087,895.614026 C1410.58573,896.777471 1407.29034,898.196676 1404.08978,899.806382 L1401.72154,901.076613 L1399.3938,902.422649 L1397.12071,903.862618 L1394.89372,905.378392 C1391.9582,907.454465 1389.17906,909.758613 1386.51912,912.228214 L1385.96632,911.712079 C1388.27464,908.848951 1390.93919,906.265642 1393.82138,903.953584 L1396.02664,902.272357 L1398.31751,900.706816 L1400.67686,899.243776 L1403.10996,897.90499 C1406.38328,896.172018 1409.84361,894.794341 1413.39284,893.755811 C1416.45117,892.890643 1419.58292,892.272995 1422.73904,892.02119 C1419.60005,891.40618 1416.43965,890.895319 1413.2651,890.47839 L1413.2809,890.632967 C1410.66211,891.290824 1408.09797,891.970104 1405.5875,892.793085 C1403.08032,893.62002 1400.62154,894.547151 1398.22269,895.609082 C1395.8258,896.674639 1393.48292,897.849949 1391.17394,899.116225 C1390.60073,899.43988 1390.02719,899.764524 1389.44377,900.078621 C1388.87814,900.417767 1388.29604,900.737467 1387.71953,901.070021 C1387.15752,901.421691 1386.57443,901.749631 1385.99727,902.091414 C1385.42537,902.439129 1384.85216,902.791128 1384.25196,903.118079 L1383.75908,902.544597 C1384.19598,902.012313 1384.65989,901.504418 1385.12544,900.993557 C1385.61798,900.516643 1386.10493,900.026547 1386.61295,899.56051 C1387.1371,899.116555 1387.65533,898.659417 1388.19035,898.222713 C1388.73623,897.803148 1389.29232,897.394459 1389.84874,896.984122 C1392.11228,895.402431 1394.55855,894.077818 1397.10985,893.015227 C1399.65917,891.949011 1402.30858,891.119438 1405.01297,890.586495 C1406.37242,890.316233 1407.74503,890.110241 1409.12224,889.986645 C1407.94718,889.865357 1406.77047,889.757252 1405.59211,889.66332 L1405.61022,889.386137 C1403.85602,889.205852 1402.11861,889.081268 1400.38383,889.065118 C1397.93262,889.025897 1395.49722,889.154766 1393.08684,889.454361 C1390.67547,889.756923 1388.29735,890.236473 1385.92582,890.809626 C1383.54738,891.379154 1381.20614,892.105894 1378.75822,892.832306 L1378.39309,892.169834 C1380.36394,890.455319 1382.69201,889.200249 1385.12972,888.261913 C1387.57467,887.327532 1390.15988,886.772176 1392.76451,886.522349 C1395.37013,886.269885 1398.0044,886.328551 1400.58171,886.71351 C1403.15473,887.114618 1405.68397,887.799501 1408.01895,888.907905 L1407.97451,889.058856 C1408.36202,889.085553 1408.74954,889.104339 1409.13673,889.134002 C1404.07299,885.847353 1398.60757,883.268659 1392.8669,881.54063 L1390.39891,880.844541 L1387.90193,880.257545 L1385.38389,879.763493 C1384.53741,879.640557 1383.69126,879.513007 1382.84543,879.375898 C1379.44831,878.936887 1376.01103,878.744079 1372.55695,878.824828 L1372.49406,878.070731 C1375.9646,877.575361 1379.50692,877.489997 1383.01697,877.80805 C1383.89242,877.900664 1384.76788,878.002177 1385.64333,878.108634 L1388.25291,878.54303 L1390.83515,879.121457 L1393.38711,879.823149 C1396.76118,880.858054 1400.03747,882.218922 1403.1251,883.920583 C1405.9095,885.440972 1408.53554,887.244146 1410.94065,889.292204 C1414.01511,889.563125 1417.08167,889.924024 1420.13605,890.381491 C1416.74552,887.489359 1413.28123,884.769601 1409.64508,882.306592 C1405.41926,879.427644 1401.00281,876.862133 1396.40659,874.654225 C1391.80872,872.450601 1387.02648,870.630288 1382.11353,869.185376 C1377.20124,867.724972 1372.15099,866.708194 1367,865.974532 L1367.03259,865.218787 C1372.28664,864.935671 1377.5904,865.455431 1382.7786,866.530217" id="Fill-136"></path>
        </g>
    </g>
</svg>